# xmcd
#
# Track frame offsets:
#	150
#	17325
#	36030
#	56446
#	71669
#	88074
#	106418
#	124402
#	141845
#	163239
#	182339
#	198840
#
# Disc length: 2847 seconds
#
# Revision: 0
# Processed by: cddbd v1.5.2PL0 Copyright (c) Steve Scherf et al.
# Submitted via: audiograbber 1.83.01
#
DISCID=9f0b1d0c
DTITLE=Jay Seidl - Jay Seidl
DYEAR=2007
DGENRE=Country
TTITLE0=Grand Man
TTITLE1=Hollywood Days
TTITLE2=Something ´Bout A Cowboy
TTITLE3=Anything
TTITLE4=Beach Life
TTITLE5=Evening Has Come
TTITLE6=Sweet Angel
TTITLE7=Trying
TTITLE8=Love´s Here To Stay
TTITLE9=Day By Day
TTITLE10=Heed
TTITLE11=Wonderful Tonight
EXTD=
EXTT0=
EXTT1=
EXTT2=
EXTT3=
EXTT4=
EXTT5=
EXTT6=
EXTT7=
EXTT8=
EXTT9=
EXTT10=
EXTT11=
PLAYORDER=
